<?xml version="1.0" standalone="no"?><!DOCTYPE svg PUBLIC "-//W3C//DTD SVG 1.1//EN"
        "http://www.w3.org/Graphics/SVG/1.1/DTD/svg11.dtd">
<svg t="1749998647137" class="icon" viewBox="0 0 1024 1024" version="1.1" xmlns="http://www.w3.org/2000/svg" p-id="2311"
     xmlns:xlink="http://www.w3.org/1999/xlink" width="200" height="200" fill="#333333">
    <path d="M943.746 1002.332h-853.333c-33.874 0-61.44-27.566-61.44-61.44v-853.333c0-33.874 27.566-61.44 61.44-61.44h853.333c33.874 0 61.44 27.566 61.44 61.44v853.333c0 33.874-27.566 61.44-61.44 61.44zM90.413 67.078c-11.292 0-20.48 9.188-20.48 20.48v853.333c0 11.292 9.188 20.48 20.48 20.48h853.333c11.292 0 20.48-9.188 20.48-20.48v-853.333c0-11.292-9.188-20.48-20.48-20.48h-853.333z"
           p-id="2312"></path>
    <path d="M443.338 697.617c0.096-0.096 359.711-337.456 359.711-337.456 8.069-7.865 8.233-20.89 0.369-28.959-7.865-8.069-20.89-8.233-28.959-0.369l-345.279 323.134-169.11-166.53c-7.865-8.069-20.89-8.233-28.959-0.369s-8.233 20.89-0.369 28.959l183.637 181.22c7.865 8.069 20.89 8.233 28.959 0.369z"
           p-id="2313"></path>
</svg>