<?xml version="1.0" standalone="no"?><!DOCTYPE svg PUBLIC "-//W3C//DTD SVG 1.1//EN" "http://www.w3.org/Graphics/SVG/1.1/DTD/svg11.dtd"><svg t="1752050479138" class="icon" viewBox="0 0 1024 1024" version="1.1" xmlns="http://www.w3.org/2000/svg" p-id="2333" xmlns:xlink="http://www.w3.org/1999/xlink" width="200" height="200"><path d="M833.498453 337.066667a326.229333 326.229333 0 0 0-321.706666-263.253334 326.229333 326.229333 0 0 0-321.706667 263.253334C80.431787 366.250667 0.00512 468.608 0.00512 585.557333a254.293333 254.293333 0 0 0 255.872 255.914667h36.565333v-73.130667h-36.565333a180.992 180.992 0 0 1-182.741333-182.784 180.992 180.992 0 0 1 182.741333-182.784 254.293333 254.293333 0 0 1 255.914667-255.872 254.293333 254.293333 0 0 1 255.914666 255.872 180.992 180.992 0 0 1 182.741334 182.784c0 102.4-80.384 182.784-182.784 182.784h-36.522667v73.130667h36.565333a254.293333 254.293333 0 0 0 255.872-255.914667c0-116.949333-80.426667-219.306667-190.08-248.576z" p-id="2334" ></path><path d="M544.64512 486.954667c-14.634667-10.965333-29.226667-14.634667-43.861333-7.296-3.669333 0-7.296 3.626667-10.965334 7.253333l-109.653333 106.069333a35.328 35.328 0 0 0 0 51.2 39.722667 39.722667 0 0 0 54.826667 0l43.861333-40.234666v310.698666c0 21.930667 18.261333 36.565333 36.522667 36.565334a36.608 36.608 0 0 0 36.565333-36.565334v-310.741333l43.861333 40.234667a39.722667 39.722667 0 0 0 54.826667 0 35.328 35.328 0 0 0 0-51.2l-105.984-105.984z" p-id="2335" ></path></svg>
